<svg width="540" height="196" viewBox="0 0 540 196" fill="none" xmlns="http://www.w3.org/2000/svg">
<path fill-rule="evenodd" clip-rule="evenodd" d="M350.775 13.8866L355.834 20.5484C357.162 22.3066 356.83 24.8267 355.072 26.1552L349.7 30.2382C350.677 32.8364 351.302 35.6105 351.556 38.4432L357.67 39.2833C359.857 39.5763 361.381 41.608 361.088 43.796L359.955 52.0988C359.662 54.2868 357.631 55.8301 355.443 55.5176L348.763 54.5994C347.571 57.1977 346.048 59.581 344.251 61.7104L348.001 66.6335C349.329 68.3917 348.978 70.9118 347.22 72.2403L340.559 77.3001C338.801 78.6285 336.282 78.2769 334.954 76.5382L330.871 71.1658C328.254 72.1426 325.5 72.7677 322.648 73.0217L321.808 79.1364C321.515 81.3244 319.484 82.8482 317.296 82.5552L308.995 81.4221C306.807 81.1291 305.284 79.0974 305.577 76.9093L306.495 70.2281C303.917 69.0364 301.514 67.5126 299.385 65.7348L294.463 69.4662C292.705 70.7946 290.185 70.4625 288.857 68.7043L283.798 62.0425C282.47 60.2843 282.802 57.7642 284.56 56.4357L289.931 52.3528C288.955 49.7349 288.33 46.9804 288.076 44.1477L281.962 43.3076C279.775 43.0146 278.231 40.9829 278.544 38.7949L279.677 30.4921C279.989 28.3041 282.001 26.7803 284.189 27.0733L290.869 27.9915C292.06 25.4128 293.584 23.0099 295.361 20.8805L291.631 15.9574C290.302 14.2187 290.635 11.6986 292.392 10.3702L299.053 5.31039C300.811 3.98195 303.331 4.31406 304.659 6.07228L308.741 11.4446C311.339 10.4679 314.112 9.84271 316.945 9.58874L317.785 3.47401C318.078 1.286 320.109 -0.257337 322.297 0.0357011L330.598 1.16878C332.785 1.46182 334.328 3.49355 334.016 5.68157L333.098 12.3628C335.696 13.5545 338.079 15.0783 340.227 16.8756L345.149 13.1443C346.907 11.7963 349.427 12.1284 350.775 13.8866ZM207.954 131.121V98.8872H224.556C227.643 98.8872 229.986 99.1412 231.608 99.6882C233.229 100.216 234.557 101.192 235.534 102.619C236.53 104.064 237.038 105.803 237.038 107.854C237.038 109.632 236.647 111.195 235.885 112.484C235.123 113.793 234.069 114.848 232.741 115.649C231.901 116.157 230.729 116.587 229.244 116.919C230.436 117.329 231.295 117.7 231.822 118.11C232.194 118.384 232.721 118.951 233.405 119.81C234.088 120.67 234.557 121.353 234.791 121.822L239.635 131.141H228.385L223.072 121.314C222.388 120.045 221.802 119.205 221.275 118.833C220.552 118.345 219.732 118.091 218.833 118.091H217.954V131.141H207.954V131.121ZM243.073 187.248H224.478L221.802 196H205.044L225.025 142.882H242.995L262.899 196H245.71L243.073 187.248ZM239.596 175.741L233.795 156.635L227.975 175.741H239.596ZM266.766 142.882H294.072C300.03 142.882 304.483 144.289 307.432 147.121C310.382 149.954 311.866 153.998 311.866 159.214C311.866 164.586 310.245 168.787 307.022 171.815C303.799 174.843 298.858 176.347 292.236 176.347H283.232V196H266.766V142.882V142.882ZM283.232 165.583H287.275C290.459 165.583 292.705 165.036 293.994 163.922C295.283 162.828 295.928 161.402 295.928 159.702C295.928 158.042 295.361 156.616 294.248 155.463C293.135 154.31 291.025 153.724 287.939 153.724H283.232V165.583V165.583ZM318.507 142.882H334.973V196H318.507V142.882V142.882ZM217.954 111.976H222.154C222.603 111.976 223.482 111.82 224.791 111.527C225.455 111.39 226.002 111.058 226.412 110.511C226.842 109.964 227.037 109.339 227.037 108.636C227.037 107.6 226.705 106.78 226.041 106.233C225.377 105.666 224.146 105.393 222.33 105.393H217.954V111.976ZM241.55 98.8872H268.211V105.764H251.55V110.902H267V117.466H251.55V123.815H268.7V131.102H241.55V98.8872ZM271.063 120.455L280.517 119.869C280.712 121.412 281.142 122.565 281.767 123.366C282.802 124.655 284.267 125.319 286.162 125.319C287.568 125.319 288.681 124.987 289.443 124.323C290.205 123.659 290.595 122.877 290.595 121.998C290.595 121.158 290.224 120.416 289.502 119.752C288.779 119.087 287.08 118.482 284.404 117.876C280.048 116.899 276.942 115.59 275.067 113.969C273.192 112.347 272.255 110.277 272.255 107.756C272.255 106.096 272.743 104.533 273.7 103.068C274.657 101.603 276.102 100.431 278.036 99.5905C279.97 98.7504 282.607 98.3402 285.966 98.3402C290.088 98.3402 293.213 99.1021 295.381 100.645C297.529 102.189 298.819 104.611 299.229 107.971L289.873 108.538C289.619 107.073 289.091 105.998 288.31 105.354C287.509 104.689 286.396 104.357 285.009 104.357C283.857 104.357 282.978 104.611 282.392 105.1C281.806 105.588 281.513 106.194 281.513 106.897C281.513 107.405 281.767 107.854 282.236 108.284C282.704 108.694 283.798 109.104 285.556 109.476C289.912 110.413 293.037 111.371 294.912 112.328C296.787 113.285 298.174 114.477 299.014 115.903C299.873 117.31 300.303 118.911 300.303 120.67C300.303 122.74 299.737 124.635 298.584 126.374C297.451 128.113 295.85 129.441 293.799 130.34C291.748 131.239 289.17 131.688 286.044 131.688C280.575 131.688 276.767 130.633 274.657 128.523C272.548 126.374 271.356 123.698 271.063 120.455ZM301.748 98.8872H332.043V106.858H321.886V131.121H311.925V106.858H301.748V98.8872V98.8872ZM268.231 22.3847C264.656 22.1112 261.043 22.1503 257.469 22.502C246.472 23.5569 235.788 27.5617 226.959 34.4188C216.743 42.3309 208.989 54.1696 206.001 69.8569L205.063 74.7604L200.18 75.62C195.395 76.46 191.117 77.6126 187.367 79.0778C183.734 80.4844 180.491 82.2231 177.659 84.2744C175.393 85.9154 173.44 87.7517 171.78 89.7444C166.643 95.8982 164.26 103.615 164.319 111.429C164.377 119.361 166.955 127.37 171.721 133.954C173.499 136.396 175.55 138.643 177.894 140.596C180.277 142.569 182.952 144.21 185.96 145.441C187.66 146.144 189.476 146.731 191.371 147.199V161.832C187.464 161.128 183.87 160.074 180.511 158.686C176.077 156.85 172.151 154.486 168.694 151.595C165.412 148.86 162.541 145.754 160.1 142.374C153.595 133.388 150.079 122.408 150.001 111.468C149.923 100.411 153.361 89.4123 160.783 80.5039C163.186 77.6126 166.018 74.9558 169.26 72.6114C173.03 69.8764 177.347 67.5712 182.23 65.6762C185.589 64.3673 189.183 63.2733 192.973 62.3942C197.27 45.3198 206.43 32.1722 218.208 23.049C229.225 14.5118 242.487 9.53013 256.14 8.22123C263.309 7.53747 270.575 7.85005 277.685 9.17849C277.528 9.82317 277.392 10.4679 277.313 11.1321L277.294 11.2493C277.157 12.3628 277.099 13.4764 277.157 14.6095C275.653 15.1955 274.247 15.9965 272.977 16.9733L272.919 17.0124C271.024 18.4385 269.422 20.2749 268.231 22.3847ZM371.577 59.8936C372.671 60.8899 373.725 61.9253 374.761 63.0389C376.85 65.2855 378.823 67.8252 380.679 70.6579C386.929 80.2695 390.133 93.1046 389.996 105.666C389.859 117.993 386.539 130.262 379.741 139.287C375.307 145.168 369.624 149.973 362.807 153.783C358.138 156.401 352.884 158.569 347.161 160.328V145.187C350.247 144.035 353.119 142.745 355.756 141.28C360.893 138.408 365.092 134.911 368.237 130.711C373.12 124.206 375.522 115.004 375.62 105.568C375.737 95.6638 373.315 85.72 368.608 78.4918C367.26 76.4014 365.776 74.526 364.213 72.8459C363.608 72.2012 363.002 71.5956 362.377 71.0095C362.475 70.0327 362.514 69.0364 362.455 68.0401C363.959 67.454 365.365 66.653 366.635 65.6762L366.694 65.6371C368.705 64.0938 370.385 62.1402 371.577 59.8936ZM322.043 25.0025C331.047 26.2333 337.336 34.536 336.106 43.5421C334.875 52.5481 326.574 58.8582 317.57 57.6274C308.565 56.3967 302.256 48.0939 303.506 39.0879C304.756 30.0819 313.038 23.7718 322.043 25.0025Z" fill="#01B5E6"/>
</svg>
